<?xml version="1.0" encoding="UTF-8" standalone="no"?>
<!-- Created with Inkscape (http://www.inkscape.org/) -->
<svg xmlns:inkscape="http://www.inkscape.org/namespaces/inkscape" xmlns:rdf="http://www.w3.org/1999/02/22-rdf-syntax-ns#" xmlns="http://www.w3.org/2000/svg" xmlns:xlink="http://www.w3.org/1999/xlink" xmlns:ns1="http://sozi.baierouge.fr" xmlns:cc="http://creativecommons.org/ns#" xmlns:sodipodi="http://sodipodi.sourceforge.net/DTD/sodipodi-0.dtd" xmlns:dc="http://purl.org/dc/elements/1.1/" id="svg2" xml:space="preserve" viewBox="0 0 33.55 23.2" version="1.1" inkscape:version="0.91 r13725">
  <defs id="defs6">
    <linearGradient id="linearGradient24" y2="16.5" gradientUnits="userSpaceOnUse" x2="33.5" gradientTransform="matrix(.8 0 0 -.8 0 18.56)" y1="16.5">
      <stop id="stop26" style="stop-color:#ffffff" offset="0"/>
      <stop id="stop28" style="stop-color:#cacbcd" offset="1"/>
    </linearGradient>
    <linearGradient id="linearGradient42" y2="-16.025" gradientUnits="userSpaceOnUse" x2="-2.2748" gradientTransform="matrix(-.8 0 0 .8 0 18.56)" y1="-16.025" x1="-31.425">
      <stop id="stop44" style="stop-color:#ffffff" offset="0"/>
      <stop id="stop46" style="stop-color:#cacbcd" offset="1"/>
    </linearGradient>
    <clipPath id="clipPath54">
      <path id="path56" d="m6 2.56h16v6h-16v-6z" inkscape:connector-curvature="0"/>
    </clipPath>
    <mask id="mask58">
      <g id="g60">
        <g id="g62" clip-path="url(#clipPath54)">
          <path id="path64" style="fill:#000000;fill-opacity:.28910" d="m6 2.56h16v6h-16v-6z" inkscape:connector-curvature="0"/>
        </g>
      </g>
    </mask>
    <clipPath id="clipPath70">
      <path id="path72" d="m6 2.56h16v6h-16v-6z" inkscape:connector-curvature="0"/>
    </clipPath>
    <clipPath id="clipPath74">
      <path id="path76" d="m6 3h16v6h-16v-6z" inkscape:connector-curvature="0"/>
    </clipPath>
    <linearGradient id="linearGradient104" y2="-25.938" gradientUnits="userSpaceOnUse" x2="12.074" gradientTransform="matrix(.0001 -.8 -.8 .0008 -.00038584 18.56)" y1="-25.938" x1="4.0742">
      <stop id="stop106" style="stop-color:#b3b5b5" offset="0"/>
      <stop id="stop108" style="stop-color:#b7b9ba" offset="1"/>
    </linearGradient>
    <linearGradient id="linearGradient122" y2="-25.608" gradientUnits="userSpaceOnUse" x2="11.674" gradientTransform="matrix(.00010526 -.8 -.8 .0008 -.00036510 18.56)" y1="-25.608" x1="4.0742">
      <stop id="stop124" style="stop-color:#c7c9c9" offset="0"/>
      <stop id="stop126" style="stop-color:#cfd0d1" offset="1"/>
    </linearGradient>
    <linearGradient id="linearGradient140" y2="7.168" gradientUnits="userSpaceOnUse" x2="29.962" gradientTransform="matrix(.8 0 0 -.8 0 18.56)" y1="7.168" x1="24.537">
      <stop id="stop142" style="stop-color:#d8dbdb" offset="0"/>
      <stop id="stop144" style="stop-color:#fcffff" offset=".14120"/>
      <stop id="stop146" style="stop-color:#b7b9ba" offset="1"/>
    </linearGradient>
    <linearGradient id="linearGradient162" y2="10.025" gradientUnits="userSpaceOnUse" x2="24.85" gradientTransform="matrix(.8 0 0 -.8 0 18.56)" y1="10.025" x1="7.3501">
      <stop id="stop164" style="stop-color:#d0d1d3" offset="0"/>
      <stop id="stop166" style="stop-color:#ffffff" offset=".2431"/>
      <stop id="stop168" style="stop-color:#cacbcd" offset="1"/>
    </linearGradient>
    <linearGradient id="linearGradient182" y2="2.7002" gradientUnits="userSpaceOnUse" x2="24.475" gradientTransform="matrix(.8 0 0 -.8 0 18.56)" y1="2.7002" x1="7.8999">
      <stop id="stop184" style="stop-color:#cacbcd" offset="0"/>
      <stop id="stop186" style="stop-color:#fcfcfc" offset=".78040"/>
      <stop id="stop188" style="stop-color:#d8d9db" offset="1"/>
    </linearGradient>
    <radialGradient id="radialGradient232" gradientUnits="userSpaceOnUse" cy="16.899" cx="-4.9302" gradientTransform="matrix(.05112 .7984 -.7984 .05112 26.984 16.832)" r="4.1084">
      <stop id="stop234" style="stop-color:#572000" offset="0"/>
      <stop id="stop236" style="stop-color:#2b130b" offset="1"/>
    </radialGradient>
    <clipPath id="clipPath244">
      <path id="path246" d="m7 14.56h12v3h-12v-3z" inkscape:connector-curvature="0"/>
    </clipPath>
    <mask id="mask248">
      <g id="g250">
        <g id="g252" clip-path="url(#clipPath244)">
          <path id="path254" style="fill:#000000;fill-opacity:.12110" d="m7 14.56h12v3h-12v-3z" inkscape:connector-curvature="0"/>
        </g>
      </g>
    </mask>
    <clipPath id="clipPath260">
      <path id="path262" d="m7 14.56h12v3h-12v-3z" inkscape:connector-curvature="0"/>
    </clipPath>
    <clipPath id="clipPath264">
      <path id="path266" d="m7 15h12v3h-12v-3z" inkscape:connector-curvature="0"/>
    </clipPath>
  </defs>
  <g id="g10" transform="matrix(1.25 0 0 -1.25 0 23.2)">
    <g id="g12">
      <g id="g14">
        <g id="g16">
          <g id="g22">
            <path id="path30" style="fill-rule:evenodd;fill:url(#linearGradient24)" d="m26.84 5.361c0-1.492-1.305-2.762-3.918-3.801-2.641-1.039-5.817-1.559-9.52-1.559-3.707 0-6.867 0.52-9.48 1.559-2.617 1.039-3.922 2.309-3.922 3.801 0 1.465 1.305 2.734 3.922 3.801 2.613 1.039 5.773 1.558 9.476 1.558 3.707 0 6.883-0.519 9.524-1.558 2.613-1.067 3.918-2.336 3.918-3.801z" inkscape:connector-curvature="0"/>
          </g>
        </g>
      </g>
      <g id="g32">
        <g id="g34">
          <g id="g40">
            <path id="path48" style="fill-rule:evenodd;fill:url(#linearGradient42)" d="m26.039 5.72c0-1.387-1.211-2.558-3.641-3.519-2.453-0.961-5.398-1.442-8.839-1.442-3.465 0-6.414 0.481-8.84 1.442-2.453 0.961-3.68 2.132-3.68 3.519s1.227 2.559 3.68 3.52c2.426 0.988 5.375 1.48 8.84 1.48 3.441 0 6.386-0.492 8.839-1.48 2.43-0.961 3.641-2.133 3.641-3.52z" inkscape:connector-curvature="0"/>
          </g>
        </g>
      </g>
      <g id="g50">
        <g id="g66" mask="url(#mask58)">
          <g id="g78">
            <g id="g80" clip-path="url(#clipPath70)">
              <g id="g82" transform="translate(0 -0.44)">
                <g id="g86">
                  <g id="g88" clip-path="url(#clipPath74)">
                    <g id="g90">
                      <path id="path92" style="fill-rule:evenodd;fill:#000000" d="m21.48 6.238c0-0.613-0.734-1.144-2.199-1.597-1.469-0.453-3.242-0.68-5.32-0.68-2.082 0-3.867 0.227-5.359 0.68-1.469 0.453-2.204 0.984-2.204 1.597 0 0.641 0.735 1.188 2.204 1.641 1.464 0.453 3.253 0.68 5.359 0.68 2.078 0 3.851-0.227 5.32-0.68 1.465-0.453 2.199-1 2.199-1.641z" inkscape:connector-curvature="0"/>
                    </g>
                  </g>
                </g>
              </g>
            </g>
          </g>
        </g>
      </g>
      <g id="g94">
        <g id="g96">
          <g id="g102">
            <path id="path110" style="fill-rule:evenodd;fill:url(#linearGradient104)" d="m23 15.681c0.641-0.535 0.785-1.496 0.441-2.883-0.402-1.625-1.429-3.199-3.082-4.718-1.519-1.415-2.347-1.641-2.48-0.68l0.281 1.84 1.16 0.281c0.957 0.371 1.825 1.066 2.602 2.078 0.558 0.723 0.824 1.52 0.797 2.402 0 0.879-0.293 1.321-0.879 1.321-0.481 0-1-0.348-1.563-1.043l-0.718-1.039-0.321 1.879c0.453 0.48 1.043 0.8 1.762 0.961 0.828 0.187 1.492 0.054 2-0.399z" inkscape:connector-curvature="0"/>
          </g>
        </g>
      </g>
      <g id="g112">
        <g id="g114">
          <g id="g120">
            <path id="path128" style="fill-rule:evenodd;fill:url(#linearGradient122)" d="m22.559 15.681c0.562-0.535 0.679-1.453 0.363-2.762-0.375-1.519-1.309-3.011-2.801-4.48-1.359-1.332-2.109-1.559-2.242-0.68l0.242 1.762 1.078 0.277c0.856 0.375 1.641 1.043 2.36 2 0.535 0.696 0.789 1.457 0.761 2.282-0.027 0.828-0.308 1.242-0.84 1.242-0.425 0-0.894-0.336-1.402-1l-0.64-0.961-0.317 1.758c0.399 0.453 0.934 0.761 1.598 0.921 0.746 0.161 1.359 0.04 1.84-0.359z" inkscape:connector-curvature="0"/>
          </g>
        </g>
      </g>
      <g id="g130">
        <g id="g132">
          <g id="g138">
            <path id="path148" style="fill-rule:evenodd;fill:url(#linearGradient140)" d="m21.32 15.72c-0.718-0.215-1.254-0.601-1.601-1.16l-0.278-0.762-0.519 1c0.105 0.137 0.277 0.457 0.519 0.961 0.371 0.453 0.985 0.723 1.84 0.801 0.852 0.078 1.531-0.266 2.039-1.039 0.508-0.774 0.625-1.641 0.36-2.602-0.321-1.121-0.973-2.265-1.957-3.437l-0.383-0.402c0.211 0.261 0.418 0.542 0.621 0.839 1.039 1.496 1.48 2.922 1.316 4.282-0.05 0.48-0.211 0.867-0.476 1.16-0.375 0.426-0.867 0.547-1.481 0.359z" inkscape:connector-curvature="0"/>
          </g>
        </g>
      </g>
      <path id="path150" style="fill-rule:evenodd;fill:#ffffff" d="m20.961 16.361c0.641 0.078 1.027 0.039 1.16-0.121 0.133-0.188 0.039-0.282-0.281-0.282-0.106 0-0.387-0.066-0.84-0.199-0.375-0.105-0.613-0.121-0.723-0.039-0.129 0.106-0.117 0.227 0.043 0.36 0.188 0.16 0.399 0.253 0.641 0.281z" inkscape:connector-curvature="0"/>
      <g id="g152">
        <g id="g154">
          <g id="g160">
            <path id="path170" style="fill-rule:evenodd;fill:url(#linearGradient162)" d="m19.602 16.759c0.183-0.238 0.277-1.121 0.277-2.64v-7.039c-0.156-0.825-0.547-1.36-1.16-1.598-1.172-0.774-3.117-1.16-5.84-1.16-2.774 0-4.746 0.398-5.918 1.199-0.348 0.184-0.629 0.504-0.84 0.961l-0.242 0.598v7.039c0 1.519 0.109 2.402 0.32 2.64h13.403z" inkscape:connector-curvature="0"/>
          </g>
        </g>
      </g>
      <g id="g172">
        <g id="g174">
          <g id="g180">
            <path id="path190" style="fill-rule:evenodd;fill:url(#linearGradient182)" d="m19.559 16.4c0-0.559-0.637-1.039-1.918-1.442-1.309-0.398-2.868-0.597-4.68-0.597-1.84 0-3.402 0.199-4.68 0.597-1.308 0.403-1.961 0.883-1.961 1.442 0 0.558 0.653 1.039 1.961 1.441 1.278 0.399 2.84 0.598 4.68 0.598 1.812 0 3.371-0.199 4.68-0.598 1.281-0.402 1.918-0.883 1.918-1.441z" inkscape:connector-curvature="0"/>
          </g>
        </g>
      </g>
      <path id="path192" style="fill-rule:evenodd;fill:#b76f35" d="m19.121 15.759c0-0.32-0.215-0.48-0.641-0.48-0.105-0.024-4.015 0.043-11.718 0.203l0.078 0.398c0.133 0.321 0.465 0.602 1 0.84 0.558 0.266 1.265 0.453 2.121 0.559 0.184 0.027 0.934 0.093 2.238 0.203 0.563 0.023 1.281 0.012 2.16-0.043 1.016-0.078 1.602-0.117 1.762-0.117 0.664-0.028 1.277-0.176 1.84-0.442 0.773-0.398 1.16-0.773 1.16-1.121z" inkscape:connector-curvature="0"/>
      <path id="path194" style="fill-rule:evenodd;fill:#2b130b" d="m17.199 16.88c0-0.215-0.094-0.32-0.277-0.32-0.188 0-0.281 0.105-0.281 0.32 0 0.188 0.093 0.282 0.281 0.282 0.183 0 0.277-0.094 0.277-0.282z" inkscape:connector-curvature="0"/>
      <path id="path196" style="fill-rule:evenodd;fill:#2b130b" d="m16.48 17.001c0-0.136-0.066-0.203-0.199-0.203-0.136 0-0.203 0.067-0.203 0.203 0 0.106 0.067 0.161 0.203 0.161 0.133 0 0.199-0.055 0.199-0.161z" inkscape:connector-curvature="0"/>
      <path id="path198" style="fill-rule:evenodd;fill:#2b130b" d="m18.32 16.24c0-0.078-0.039-0.121-0.121-0.121-0.078 0-0.121 0.043-0.121 0.121 0 0.082 0.043 0.121 0.121 0.121 0.082 0 0.121-0.039 0.121-0.121z" inkscape:connector-curvature="0"/>
      <path id="path200" style="fill-rule:evenodd;fill:#2b130b" d="m18.84 16.08c0-0.106-0.067-0.161-0.199-0.161-0.106 0-0.161 0.055-0.161 0.161 0 0.132 0.051 0.199 0.161 0.199 0.132 0 0.199-0.067 0.199-0.199z" inkscape:connector-curvature="0"/>
      <path id="path202" style="fill-rule:evenodd;fill:#2b130b" d="m9.879 16.841c0-0.187-0.078-0.281-0.238-0.281-0.188 0-0.282 0.094-0.282 0.281 0 0.184 0.094 0.278 0.282 0.278 0.16 0 0.238-0.094 0.238-0.278z" inkscape:connector-curvature="0"/>
      <path id="path204" style="fill-rule:evenodd;fill:#2b130b" d="m10.16 17.04-0.082-0.082-0.078 0.082c0 0.079 0.027 0.122 0.078 0.122 0.055 0 0.082-0.043 0.082-0.122z" inkscape:connector-curvature="0"/>
      <path id="path206" style="fill-rule:evenodd;fill:#2b130b" d="m12.559 17.119c0-0.133-0.067-0.2-0.2-0.2-0.132 0-0.199 0.067-0.199 0.2 0 0.136 0.067 0.203 0.199 0.203 0.133 0 0.2-0.067 0.2-0.203z" inkscape:connector-curvature="0"/>
      <path id="path208" style="fill-rule:evenodd;fill:#2b130b" d="m13.121 17.04c0-0.105-0.066-0.16-0.199-0.16-0.137 0-0.203 0.055-0.203 0.16 0 0.133 0.066 0.2 0.203 0.2 0.133 0 0.199-0.067 0.199-0.2z" inkscape:connector-curvature="0"/>
      <path id="path210" style="fill-rule:evenodd;fill:#2b130b" d="m13.441 17.201c0-0.082-0.043-0.121-0.121-0.121-0.082 0-0.121 0.039-0.121 0.121 0 0.078 0.039 0.121 0.121 0.121 0.078 0 0.121-0.043 0.121-0.121z" inkscape:connector-curvature="0"/>
      <path id="path212" style="fill-rule:evenodd;fill:#2b130b" d="m15.039 16.958c0-0.105-0.066-0.16-0.199-0.16-0.106 0-0.16 0.055-0.16 0.16 0 0.137 0.054 0.204 0.16 0.204 0.133 0 0.199-0.067 0.199-0.204z" inkscape:connector-curvature="0"/>
      <path id="path214" style="fill-rule:evenodd;fill:#2b130b" d="m15.441 16.88c0-0.054-0.043-0.082-0.121-0.082l-0.121 0.082c0 0.078 0.039 0.121 0.121 0.121 0.078 0 0.121-0.043 0.121-0.121z" inkscape:connector-curvature="0"/>
      <path id="path216" style="fill-rule:evenodd;fill:#2b130b" d="m8.52 16.439c0-0.106-0.067-0.16-0.2-0.16-0.105 0-0.16 0.054-0.16 0.16 0 0.109 0.051 0.16 0.16 0.16 0.133 0 0.2-0.051 0.2-0.16z" inkscape:connector-curvature="0"/>
      <path id="path218" style="fill-rule:evenodd;fill:#2b130b" d="m7.719 16.162c0-0.161-0.078-0.243-0.239-0.243-0.16 0-0.242 0.082-0.242 0.243 0 0.132 0.082 0.199 0.242 0.199 0.161 0 0.239-0.067 0.239-0.199z" inkscape:connector-curvature="0"/>
      <path id="path220" style="fill-rule:evenodd;fill:#2b130b" d="m7.199 15.759c0-0.054-0.039-0.078-0.121-0.078l-0.078 0.078c0 0.082 0.027 0.121 0.078 0.121 0.082 0 0.121-0.039 0.121-0.121z" inkscape:connector-curvature="0"/>
      <g id="g222">
        <g id="g224">
          <g id="g230">
            <path id="path238" style="fill-rule:evenodd;fill:url(#radialGradient232)" d="m18.559 15.599c0-0.32-0.532-0.598-1.598-0.84-1.094-0.211-2.402-0.32-3.922-0.32-1.519 0-2.812 0.109-3.879 0.32-1.094 0.242-1.64 0.52-1.64 0.84s0.546 0.586 1.64 0.801c1.067 0.238 2.36 0.359 3.879 0.359 1.52 0 2.828-0.121 3.922-0.359 1.066-0.215 1.598-0.481 1.598-0.801z" inkscape:connector-curvature="0"/>
          </g>
        </g>
      </g>
      <g id="g240">
        <g id="g256" mask="url(#mask248)">
          <g id="g268">
            <g id="g270" clip-path="url(#clipPath260)">
              <g id="g272" transform="translate(0 -0.44)">
                <g id="g276">
                  <g id="g278" clip-path="url(#clipPath264)">
                    <g id="g280">
                      <path id="path282" style="fill-rule:evenodd;fill:#e7e7e9" d="m13.039 17.199c1.52 0 2.828-0.121 3.922-0.359 1.066-0.215 1.598-0.481 1.598-0.801 0-0.238-0.266-0.437-0.797-0.598-1.684 0.559-3.547 0.813-5.602 0.758-2.055-0.054-3.453-0.265-4.199-0.64-0.293 0.16-0.441 0.32-0.441 0.48 0 0.32 0.546 0.586 1.64 0.801 1.067 0.238 2.36 0.359 3.879 0.359z" inkscape:connector-curvature="0"/>
                    </g>
                  </g>
                </g>
              </g>
            </g>
          </g>
        </g>
      </g>
      <path id="path284" style="fill-rule:evenodd;fill:#fff0f0" d="m17.719 17.919c1.336-0.425 2-0.945 2-1.558 0-0.614-0.664-1.121-2-1.52-1.332-0.426-2.946-0.64-4.84-0.64-1.891 0-3.504 0.214-4.84 0.64-1.332 0.426-2 0.934-2 1.52 0 0.613 0.668 1.133 2 1.558 1.336 0.426 2.949 0.641 4.84 0.641 1.922 0 3.535-0.215 4.84-0.641zm-0.239-2.8c1.254 0.347 1.879 0.789 1.879 1.32 0 0.508-0.625 0.949-1.879 1.32-1.253 0.348-2.761 0.52-4.519 0.52-1.762 0-3.254-0.172-4.481-0.52-1.253-0.371-1.878-0.812-1.878-1.32 0-0.531 0.625-0.973 1.878-1.32 1.227-0.372 2.719-0.559 4.481-0.559 1.758 0 3.266 0.187 4.519 0.559z" inkscape:connector-curvature="0"/>
    </g>
  </g>
<metadata><rdf:RDF><cc:Work><dc:format>image/svg+xml</dc:format><dc:type rdf:resource="http://purl.org/dc/dcmitype/StillImage"/><cc:license rdf:resource="http://creativecommons.org/licenses/publicdomain/"/><dc:publisher><cc:Agent rdf:about="http://openclipart.org/"><dc:title>Openclipart</dc:title></cc:Agent></dc:publisher></cc:Work><cc:License rdf:about="http://creativecommons.org/licenses/publicdomain/"><cc:permits rdf:resource="http://creativecommons.org/ns#Reproduction"/><cc:permits rdf:resource="http://creativecommons.org/ns#Distribution"/><cc:permits rdf:resource="http://creativecommons.org/ns#DerivativeWorks"/></cc:License></rdf:RDF></metadata></svg>
